<?xml version="1.0" standalone="yes"?>
<svg xmlns="http://www.w3.org/2000/svg" width="567" height="402">
<path style="fill:#fcfcfc; stroke:none;" d="M0 0L0 64L1 64C2.42411 32.8348 35.3735 2.33536 66 1L45 0L0 0z"/>
<path style="fill:#242022; stroke:none;" d="M66 0.428253C37.3532 4.5321 12.8805 23.1755 3.5162 51C-4.81494 75.7547 0 107.133 0 133L0 298C0 329.397 -1.60334 358.36 23.0008 381.961C54.891 412.551 109.552 402 150 402L389 402L465 402C478.292 402 492.92 403.698 506 401.195C533.355 395.961 556.227 375.836 564.279 349C571.751 324.092 567 292.826 567 267L567 104C567 73.3303 568.64 43.1816 543.911 20.4283C510.476 -10.3353 455.861 0 414 0L181 0L106 0C92.9409 0 78.9341 -1.42465 66 0.428253z"/>
<path style="fill:#fcfcfc; stroke:none;" d="M501 0L501 1C532.314 2.36536 563.456 32.8501 566 64L567 64L567 0L501 0z"/>
<path style="fill:#51b69a; stroke:none;" d="M289 39.4244C285.302 39.9113 278.485 39.2312 276.603 43.2785C274.039 48.7937 276 58.976 276 65L276 117C276 122.299 273.654 135.105 277.028 139.397C281.457 145.033 303.566 142.484 310 141.715C322.026 140.276 334.73 137.131 343.985 128.815C362.579 112.107 366.255 75.3997 349.787 56C335.358 39.003 309.885 36.6741 289 39.4244M449 41L449 141L463 141L463 97C472.825 97 483.676 96.1616 490.2 105.04C496.418 113.502 493.94 134.33 502.419 139.972C505.578 142.074 511.37 141 515 141C511.678 126.641 508.998 98.4394 493 93C511.018 82.4718 522.23 55.4004 498 42.9962C484.174 35.9181 463.711 38.269 449 41z"/>
<path style="fill:#e32226; stroke:none;" d="M60 40L60 141L61 141L61 71L60 40z"/>
<path style="fill:#f9b042; stroke:none;" d="M61 40L61 141L73 141L73 122C73 113.958 71.4568 105.553 76.8889 99.0015C78.4347 97.1371 80.9243 93.3135 83.8302 94.2068C88.3565 95.5982 92.5008 105.251 95 109C100.258 116.887 108.587 136.53 117.326 140.397C121.097 142.065 126.941 141 131 141L103 98L94.4429 82L103.59 70L128 40L113.171 40.6034L101.75 53L73 88L73 40L61 40z"/>
<path style="fill:#e32226; stroke:none;" d="M73 40L73 88L74 88C74 74.4736 78.2093 52.4143 73 40z"/>
<path style="fill:#51b69a; stroke:none;" d="M141 40L141 141L155 141L155 40L141 40z"/>
<path style="fill:#e32226; stroke:none;" d="M177 40L177 141L178 141L178 71L177 40z"/>
<path style="fill:#f9b042; stroke:none;" d="M178 40L178 141L190 141L189 56L190 56C195.944 76.6329 211.989 95.9225 223.192 114C227.925 121.637 232.728 133.585 239.609 139.397C242.873 142.154 249.011 141 253 141L253 40L241 40C241 67.3272 238.003 97.086 243 124C231.25 103.868 220.069 83.5905 207.343 64C203.277 57.7391 197.944 43.5943 190.816 40.6034C187.18 39.0778 181.881 40 178 40z"/>
<path style="fill:#e32226; stroke:none;" d="M253 40L253 141L254 141L254 71L253 40z"/>
<path style="fill:#f9b042; stroke:none;" d="M376 40L376 141L433 141L433 130L389 130L389 105L390.603 94.6034L401 93L429 93L429 83L401 83C397.899 82.9998 393.029 83.8225 390.603 81.3966C385.759 76.5518 389 57.6225 389 51L431 51L431 40L376 40z"/>
<path style="fill:#e32226; stroke:none;" d="M193 42L194 43L193 42M195 45L196 46L195 45M106 47L107 48L106 47M122 47L123 48L122 47M197 48L198 49L197 48z"/>
<path style="fill:#242022; stroke:none;" d="M290 131C302.755 131 316.574 132.418 328 125.521C347.726 113.615 352.373 79.5966 337.671 62.0038C329.191 51.8556 313.792 47.9576 301 49.5764C298.213 49.9291 292.969 49.1522 291.028 51.6034C287.763 55.7254 290 67.9124 290 73L290 131M463 50L463 87C471.901 87 481.972 88.351 489.985 83.6335C500.762 77.2892 501.785 59.8935 490.985 52.9946C482.374 47.4947 472.452 49.5941 463 50z"/>
<path style="fill:#e32226; stroke:none;" d="M389 51L389 82L390 82L389 51M102 52L103 53L102 52M200 53L201 54L200 53M116 54L117 55L116 54M202 56L203 57L202 56M97 58L98 59L97 58M190 58L191 59L190 58M191 60L192 61L191 60M110 61L111 62L110 61M205 61L206 62L205 61M192 62L193 63L192 62M93 63L94 64L93 63M193 64L194 65L193 64M207 64L208 65L207 64M104 68L105 69L104 68M189 68L189 78L190 78L189 68M212 72L213 73L212 72M198 73L199 74L198 73M84 74L85 75L84 74M199 75L200 76L199 75M214 75L215 76L214 75M80 79L81 80L80 79M202 80L203 81L202 80M217 80L218 81L217 80M93 81L94 82L93 81M77 83L78 84L77 83M219 83L220 84L219 83M205 85L206 86L205 85M75 86L76 87L75 86M207 88L208 89L207 88M222 88L223 89L222 88M98 91L99 92L98 91M224 91L225 92L224 91M210 93L211 94L210 93M390 93L390 94L428 94C417.964 89.7888 400.911 93 390 93M85 94L86 95L85 94M100 94L101 95L100 94M389 94L389 130L390 130C390 119.613 393.011 103.56 389 94M79 95L80 96L79 95M212 96L213 97L212 96M227 96L228 97L227 96M87 97L88 98L87 97M102 97L103 98L102 97M89 100L90 101L89 100M104 100L105 101L104 100M215 101L216 102L215 101M230 101L231 102L230 101M73 102L73 141L74 141C74 129.828 77.3111 112.274 73 102M241 102L241 108L242 108L241 102M91 103L92 104L91 103M106 103L107 104L106 103M217 104L218 105L217 104M93 106L94 107L93 106M108 106L109 107L108 106M234 108L235 109L234 108M95 109L96 110L95 109M110 109L111 110L110 109M220 109L221 110L220 109M235 110L236 111L235 110M97 112L98 113L97 112M222 112L223 113L222 112M99 115L100 116L99 115M225 117L226 118L225 117M101 118L102 119L101 118M117 119L118 120L117 119M227 120L228 121L227 120M103 121L104 122L103 121M242 121L242 124L243 124L242 121M119 122L120 123L119 122M105 124L106 125L105 124M121 125L122 126L121 125M230 125L231 126L230 125M107 127L108 128L107 127M123 128L124 129L123 128M232 128L233 129L232 128M109 130L110 131L109 130M125 131L126 132L125 131M111 133L112 134L111 133M235 133L236 134L235 133M127 134L128 135L127 134M113 136L114 137L113 136M237 136L238 137L237 136M129 137L130 138L129 137M115 139L116 140L115 139M131 140L132 141L131 140M451 150L451 250L465 250L465 206C474.83 206 485.843 205.125 492.362 214.015C498.584 222.502 495.894 243.195 504.43 248.972C507.554 251.087 513.395 250 517 250C513.688 235.684 510.913 207.41 495 202C512.405 191.734 524.357 165.392 501 152.649C486.878 144.944 466.194 147.179 451 150M58 149L58 250L72 250C72 233.285 67.2157 212.307 82 201L104 235L114.326 248.972L130 250L101.28 207L92.4429 191L101.729 179L126 149L111.171 149.603L99.6111 162L73 197L72 197L72 149L58 149M137 149C137 174.794 130.059 212.788 143.174 236C155.705 258.178 193.933 256.873 206.096 235C218.887 211.996 212 174.517 212 149L199 149C199 171.877 204.872 204.656 195.662 226C189.542 240.182 171.095 246.317 159.185 234.787C150.962 226.826 151 215.564 151 205L151 149L137 149M231 149L231 250L288 250L288 239L245 239L245 149L231 149M273 149L273 160L304 160L304 250L317 250L317 160L348 160L348 149L273 149M357 149C357 174.794 350.059 212.788 363.174 236C375.705 258.178 413.933 256.873 426.096 235C438.887 211.996 432 174.517 432 149L419 149C419 171.877 424.872 204.656 415.662 226C409.542 240.182 391.095 246.317 379.185 234.787C370.962 226.826 371 215.564 371 205L371 149L357 149z"/>
<path style="fill:#242022; stroke:none;" d="M465 159L465 196C474.28 196 484.82 197.42 492.985 192.03C503.687 184.964 503.032 167.732 491.996 161.367C483.727 156.599 473.955 158.293 465 159z"/>
<path style="fill:#51b69a; stroke:none;" d="M116 255L117 256L116 255z"/>
<path style="fill:#f9b042; stroke:none;" d="M117.667 255.333L118.333 255.667L117.667 255.333z"/>
<path style="fill:#fcfcfc; stroke:none;" d="M98 297C85.1918 297 73.2436 297.889 64.7608 309.015C50.3082 327.97 59.3518 360.704 85 363.816C96.9162 365.261 109.527 362.622 117.481 352.96C131.365 336.095 126.062 306.03 104 299L106 290C119.144 303.254 130.303 321.068 145.17 332.347C151.172 336.901 161.352 331.781 166.272 336.603C171.04 341.275 171.775 349.738 177.04 354.957C190.95 368.745 216.695 367.008 228.211 350.999C240.964 333.272 234.249 306.111 213 298.549C206.822 296.35 193.107 300.192 188.699 296.357C180.899 289.572 173.345 268.185 189 268L189 262L159 263L159 264L174 268L172 275L111 275C115.955 263.824 118.731 262 131 262L131 255C125.068 255 117.242 254.118 112.108 257.738C103.906 263.523 99.417 287.405 98 297z"/>
<path style="fill:#51b69a; stroke:none;" d="M131 255L131 262L132 262L131 255M113 256L114 257L113 256M110 258L111 259L110 258M513 309L479 309L479 319L500 319L500 350C488.485 351.551 477.2 353.932 466 349.121C440.5 338.168 435.264 299.991 455.09 281.184C468.585 268.384 489.694 268.719 506 275C513.87 257.22 488.064 258.964 476 260.171C454.589 262.311 436.781 275.884 431.378 297C422.04 333.498 446.067 363.175 483 362.999C490.102 362.965 506.103 362.663 511.397 357.272C514.254 354.363 513 347.717 513 344L513 309M108 261L109 262L108 261M231 261L248.627 333L256.14 360.397L270 362L291 278L293 278C293.469 300.706 302.386 325.05 307.873 347C309.632 354.035 313.443 369.057 324.437 360.972C329.681 357.116 331.242 341.127 333 335C340.063 310.387 346.202 285.388 354 261L340 261L319 346L318 346C317.544 323.895 309.067 300.4 303.87 279C301.64 269.815 300.961 257.567 288.144 261.318C282.397 263 281.43 277.002 280.116 282C274.499 303.363 266.835 325.046 264 347L249.87 285L243.86 262.603L231 261M364 261L364 362L421 362L421 351L377 351L377 326L378.603 315.603L389 314L417 314L417 304L389 304C385.899 304 381.029 304.822 378.603 302.397C373.759 297.552 377 278.622 377 272L419 272L419 261L364 261M158 262L159 263L158 262z"/>
<path style="fill:#f9b042; stroke:none;" d="M159 262L159 263L175 263L159 262M189 262L187 268L187 269C189.824 267.171 190.263 265.117 189 262z"/>
<path style="fill:#51b69a; stroke:none;" d="M107.333 263.667L107.667 264.333L107.333 263.667z"/>
<path style="fill:#f9b042; stroke:none;" d="M160 264L161 265L160 264z"/>
<path style="fill:#51b69a; stroke:none;" d="M114.333 265.667L114.667 266.333L114.333 265.667M161 265L162 266L161 265M106.333 266.667L106.667 267.333L106.333 266.667M163 266L164 267L163 266z"/>
<path style="fill:#f9b042; stroke:none;" d="M164 266L165 267L164 266z"/>
<path style="fill:#51b69a; stroke:none;" d="M167 267L168 268L167 267z"/>
<path style="fill:#f9b042; stroke:none;" d="M168 267L169 268L168 267z"/>
<path style="fill:#51b69a; stroke:none;" d="M113 268L114 269L113 268M173.333 268.667L173.667 269.333L173.333 268.667M181 268L181 269L187 269L181 268M189 268L190 269L189 268M105 270L106 271L105 270M180 270L181 271L180 270M112 271L113 272L112 271M172 271L173 272L172 271z"/>
<path style="fill:#f9b042; stroke:none;" d="M179 272L180 273L179 272z"/>
<path style="fill:#51b69a; stroke:none;" d="M104 273L105 274L104 273M179 273L180 274L179 273z"/>
<path style="fill:#f9b042; stroke:none;" d="M104 274L105 275L104 274z"/>
<path style="fill:#51b69a; stroke:none;" d="M111 274L112 275L111 274M171 274L172 275L171 274z"/>
<path style="fill:#f9b042; stroke:none;" d="M178 275L179 276L178 275z"/>
<path style="fill:#51b69a; stroke:none;" d="M103 276L104 277L103 276z"/>
<path style="fill:#f9b042; stroke:none;" d="M103 277L104 278L103 277z"/>
<path style="fill:#51b69a; stroke:none;" d="M179 277L180 278L179 277M102.333 279.667L102.667 280.333L102.333 279.667M180 279L181 280L180 279M181 281L182 282L181 281z"/>
<path style="fill:#242022; stroke:none;" d="M109 282C119.764 297.281 136.16 316.651 151 328L168 282L109 282z"/>
<path style="fill:#51b69a; stroke:none;" d="M168 282L169 283L168 282M101 283L102 284L101 283M182 283L183 284L182 283M167 284L168 285L167 284z"/>
<path style="fill:#f9b042; stroke:none;" d="M182 284L183 285L182 284M167 285L168 286L167 285z"/>
<path style="fill:#51b69a; stroke:none;" d="M100 286L101 287L100 286M174.667 286.333L175.333 286.667L174.667 286.333M183 286L184 287L183 286z"/>
<path style="fill:#f9b042; stroke:none;" d="M100 287L101 288L100 287M113 287L114 288L113 287z"/>
<path style="fill:#51b69a; stroke:none;" d="M166 287L167 288L166 287z"/>
<path style="fill:#242022; stroke:none;" d="M174 287L159 329C168.431 328.888 166.651 321.942 170.327 315C173.155 309.66 177.245 305.625 182 302L174 287z"/>
<path style="fill:#51b69a; stroke:none;" d="M114 288L115 289L114 288M173.333 288.667L173.667 289.333L173.333 288.667M176 288L177 289L176 288M184 288L185 289L184 288M99 289L100 290L99 289M115 289L116 290L115 289z"/>
<path style="fill:#f9b042; stroke:none;" d="M99 290L100 291L99 290M106 290L107 291L106 290z"/>
<path style="fill:#51b69a; stroke:none;" d="M116 290L117 291L116 290M165 290L166 291L165 290z"/>
<path style="fill:#f9b042; stroke:none;" d="M177 290L178 291L177 290z"/>
<path style="fill:#51b69a; stroke:none;" d="M185 290L186 291L185 290M107 291L108 292L107 291M117 291L118 292L117 291M172 291L173 292L172 291M98.3333 292.667L98.6667 293.333L98.3333 292.667M108 292L109 293L108 292M118 292L119 293L118 292M164 292L165 293L164 292z"/>
<path style="fill:#f9b042; stroke:none;" d="M178 292L179 293L178 292z"/>
<path style="fill:#51b69a; stroke:none;" d="M186 292L187 293L186 292M105.333 293.667L105.667 294.333L105.333 293.667M109 293L110 294L109 293z"/>
<path style="fill:#f9b042; stroke:none;" d="M164 293L165 294L164 293M171 293L172 294L171 293z"/>
<path style="fill:#51b69a; stroke:none;" d="M178 293L179 294L178 293M110 294L111 295L110 294M171 294L172 295L171 294M187 294L188 295L187 294M111 295L112 296L111 295M163 295L164 296L163 295M179 295L180 296L179 295z"/>
<path style="fill:#f9b042; stroke:none;" d="M187 295L188 296L187 295z"/>
<path style="fill:#51b69a; stroke:none;" d="M86.6667 296.333L87.3333 296.667L86.6667 296.333z"/>
<path style="fill:#f9b042; stroke:none;" d="M88 296L88 297L95 297L88 296z"/>
<path style="fill:#51b69a; stroke:none;" d="M95.6667 296.333L96.3333 296.667L95.6667 296.333z"/>
<path style="fill:#f9b042; stroke:none;" d="M97 296L98 297L97 296M104 296L105 297L104 296M112 296L113 297L112 296z"/>
<path style="fill:#51b69a; stroke:none;" d="M170 296L171 297L170 296M195 296L195 297L198 297L195 296z"/>
<path style="fill:#f9b042; stroke:none;" d="M198 296L198 297L205 297L198 296z"/>
<path style="fill:#51b69a; stroke:none;" d="M205.667 296.333L206.333 296.667L205.667 296.333M81.6667 297.333L82.3333 297.667L81.6667 297.333M104.333 297.667L104.667 298.333L104.333 297.667M180 297L181 298L180 297M188 297L189 298L188 297M191 297L192 298L191 297z"/>
<path style="fill:#f9b042; stroke:none;" d="M192 297L193 298L192 297M209 297L210 298L209 297z"/>
<path style="fill:#51b69a; stroke:none;" d="M210 297L211 298L210 297M78 298L79 299L78 298z"/>
<path style="fill:#f9b042; stroke:none;" d="M79 298L80 299L79 298z"/>
<path style="fill:#51b69a; stroke:none;" d="M123 298L124 299L123 298M162 298L163 299L162 298M213 298L214 299L213 298M76 299L77 300L76 299M106 299L107 300L106 299M124 299L125 300L124 299M169 299L170 300L169 299M181 299L182 300L181 299M215 299L216 300L215 299M74 300L75 301L74 300M108 300L109 301L108 300M125 300L126 301L125 300M161 300L162 301L161 300M217 300L218 301L217 300z"/>
<path style="fill:#f9b042; stroke:none;" d="M73 301L74 302L73 301M109 301L110 302L109 301z"/>
<path style="fill:#51b69a; stroke:none;" d="M126 301L127 302L126 301z"/>
<path style="fill:#f9b042; stroke:none;" d="M161 301L162 302L161 301M168 301L169 302L168 301z"/>
<path style="fill:#51b69a; stroke:none;" d="M219 301L220 302L219 301M71 302L72 303L71 302z"/>
<path style="fill:#f9b042; stroke:none;" d="M89 302L89 303L93 303L89 302z"/>
<path style="fill:#51b69a; stroke:none;" d="M111 302L112 303L111 302M117 302L118 303L117 302M127 302L128 303L127 302M168 302L169 303L168 302z"/>
<path style="fill:#f9b042; stroke:none;" d="M199 302L199 303L203 303L199 302M220 302L221 303L220 302M70 303L71 304L70 303M84 303L85 304L84 303z"/>
<path style="fill:#51b69a; stroke:none;" d="M85 303L86 304L85 303z"/>
<path style="fill:#242022; stroke:none;" d="M102 305C100.279 312.438 98.069 321.036 94.8912 327.981C93.9546 330.028 91.2449 333.926 88.6929 331.338C84.8235 327.414 93.9333 308.154 95 303C84.4041 303.007 75.0349 305.876 68.6489 315C57.4656 330.978 67.4207 353.518 86 357.482C118.275 364.368 130.731 318.671 102 305z"/>
<path style="fill:#f9b042; stroke:none;" d="M95 303L96 304L95 303z"/>
<path style="fill:#51b69a; stroke:none;" d="M112 303L113 304L112 303M118 303L119 304L118 303M160 303L161 304L160 303M179 303L180 304L179 303M194.667 303.333L195.333 303.667L194.667 303.333z"/>
<path style="fill:#242022; stroke:none;" d="M192 304C194.04 309.992 205.837 326.978 202.867 332.697C199.554 339.077 180.039 336 174 336C175.131 340.759 177.015 345.216 180.329 348.907C210.331 382.316 252.447 319.656 210 304.549C203.953 302.396 198.183 303.219 192 304z"/>
<path style="fill:#51b69a; stroke:none;" d="M206.667 303.333L207.333 303.667L206.667 303.333M81.6667 304.333L82.3333 304.667L81.6667 304.333M119 304L120 305L119 304M167 304L168 305L167 304M178 304L179 305L178 304M210 304L211 305L210 304M223 304L224 305L223 304M79 305L80 306L79 305M94.3333 305.667L94.6667 306.333L94.3333 305.667M103 305L104 306L103 305M120 305L121 306L120 305M177 305L178 306L177 305M192 305L193 306L192 305M212 305L213 306L212 305M224 305L225 306L224 305M77 306L78 307L77 306M101.333 306.667L101.667 307.333L101.333 306.667z"/>
<path style="fill:#f9b042; stroke:none;" d="M105 306L106 307L105 306z"/>
<path style="fill:#51b69a; stroke:none;" d="M121 306L122 307L121 306M159 306L160 307L159 306z"/>
<path style="fill:#f9b042; stroke:none;" d="M176 306L177 307L176 306M192 306L193 307L192 306z"/>
<path style="fill:#51b69a; stroke:none;" d="M214 306L215 307L214 306M225 306L226 307L225 306M106 307L107 308L106 307z"/>
<path style="fill:#f9b042; stroke:none;" d="M122 307L123 308L122 307z"/>
<path style="fill:#51b69a; stroke:none;" d="M166 307L167 308L166 307M175 307L176 308L175 307z"/>
<path style="fill:#f9b042; stroke:none;" d="M216 307L217 308L216 307z"/>
<path style="fill:#51b69a; stroke:none;" d="M226 307L227 308L226 307M74 308L75 309L74 308z"/>
<path style="fill:#f9b042; stroke:none;" d="M108 308L109 309L108 308M117 308L118 309L117 308M132 308L133 309L132 308z"/>
<path style="fill:#51b69a; stroke:none;" d="M158 308L159 309L158 308M174 308L175 309L174 308z"/>
<path style="fill:#242022; stroke:none;" d="M184 308C178.086 314.056 175.285 319.95 173 328L174 329L194 329C192.794 322.236 188.901 312.853 184 308z"/>
<path style="fill:#51b69a; stroke:none;" d="M185 308L186 309L185 308M193 308L194 309L193 308M217 308L218 309L217 308z"/>
<path style="fill:#f9b042; stroke:none;" d="M64 309L65 310L64 309z"/>
<path style="fill:#51b69a; stroke:none;" d="M73 309L74 310L73 309M93 309L94 310L93 309M100.333 309.667L100.667 310.333L100.333 309.667M109 309L110 310L109 309M118 309L119 310L118 309M133 309L134 310L133 309z"/>
<path style="fill:#f9b042; stroke:none;" d="M158 309L159 310L158 309M165 309L166 310L165 309z"/>
<path style="fill:#51b69a; stroke:none;" d="M173 309L174 310L173 309z"/>
<path style="fill:#f9b042; stroke:none;" d="M182 309L183 310L182 309z"/>
<path style="fill:#51b69a; stroke:none;" d="M63 310L64 311L63 310M72 310L73 311L72 310M110 310L111 311L110 310M119 310L120 311L119 310M134 310L135 311L134 310M165 310L166 311L165 310M181 310L182 311L181 310M186 310L187 311L186 310M194 310L195 311L194 310z"/>
<path style="fill:#f9b042; stroke:none;" d="M228 310L229 311L228 310z"/>
<path style="fill:#51b69a; stroke:none;" d="M71 311L72 312L71 311M111 311L112 312L111 311M135 311L136 312L135 311M157 311L158 312L157 311z"/>
<path style="fill:#f9b042; stroke:none;" d="M172 311L173 312L172 311z"/>
<path style="fill:#51b69a; stroke:none;" d="M180 311L181 312L180 311M229 311L230 312L229 311z"/>
<path style="fill:#f9b042; stroke:none;" d="M62 312L63 313L62 312z"/>
<path style="fill:#51b69a; stroke:none;" d="M70 312L71 313L70 312M92 312L93 313L92 312z"/>
<path style="fill:#f9b042; stroke:none;" d="M99 312L100 313L99 312z"/>
<path style="fill:#51b69a; stroke:none;" d="M112 312L113 313L112 312M120 312L121 313L120 312M136 312L137 313L136 312M164 312L165 313L164 312M171 312L172 313L171 312M187 312L188 313L187 312M195 312L196 313L195 312M61 313L62 314L61 313M69 313L70 314L69 313M99 313L100 314L99 313M127 313L128 314L127 313M137 313L138 314L137 313M222 313L223 314L222 313z"/>
<path style="fill:#f9b042; stroke:none;" d="M230 313L231 314L230 313z"/>
<path style="fill:#51b69a; stroke:none;" d="M128 314L129 315L128 314M156 314L157 315L156 314M170 314L171 315L170 314z"/>
<path style="fill:#f9b042; stroke:none;" d="M188 314L189 315L188 314z"/>
<path style="fill:#51b69a; stroke:none;" d="M196 314L197 315L196 314M223 314L224 315L223 314M60 315L61 316L60 315M91 315L92 316L91 315M114 315L115 316L114 315M122 315L123 316L122 315M129 315L130 316L129 315M163 315L164 316L163 315M177 315L178 316L177 315z"/>
<path style="fill:#f9b042; stroke:none;" d="M231 315L232 316L231 315z"/>
<path style="fill:#51b69a; stroke:none;" d="M67 316L68 317L67 316z"/>
<path style="fill:#f9b042; stroke:none;" d="M91 316L92 317L91 316z"/>
<path style="fill:#51b69a; stroke:none;" d="M98 316L99 317L98 316z"/>
<path style="fill:#f9b042; stroke:none;" d="M115 316L116 317L115 316M122 316L123 317L122 316z"/>
<path style="fill:#51b69a; stroke:none;" d="M130 316L131 317L130 316M155 316L156 317L155 316M169 316L170 317L169 316M197 316L198 317L197 316M224 316L225 317L224 316M59 317L60 318L59 317M131 317L132 318L131 317z"/>
<path style="fill:#f9b042; stroke:none;" d="M155 317L156 318L155 317z"/>
<path style="fill:#51b69a; stroke:none;" d="M162 317L163 318L162 317M176 317L177 318L176 317M189 317L190 318L189 317z"/>
<path style="fill:#f9b042; stroke:none;" d="M197 317L198 318L197 317M225 317L226 318L225 317z"/>
<path style="fill:#51b69a; stroke:none;" d="M232 317L233 318L232 317z"/>
<path style="fill:#f9b042; stroke:none;" d="M59 318L60 319L59 318z"/>
<path style="fill:#51b69a; stroke:none;" d="M66 318L67 319L66 318M90.3333 318.667L90.6667 319.333L90.3333 318.667M116 318L117 319L116 318M123 318L124 319L123 318z"/>
<path style="fill:#f9b042; stroke:none;" d="M132 318L133 319L132 318z"/>
<path style="fill:#51b69a; stroke:none;" d="M168 318L169 319L168 318M97 319L98 320L97 319M142 319L143 320L142 319M154 319L155 320L154 319z"/>
<path style="fill:#f9b042; stroke:none;" d="M168 319L169 320L168 319z"/>
<path style="fill:#51b69a; stroke:none;" d="M175 319L176 320L175 319M190 319L191 320L190 319z"/>
<path style="fill:#f9b042; stroke:none;" d="M198 319L199 320L198 319z"/>
<path style="fill:#51b69a; stroke:none;" d="M233 319L234 320L233 319M58 320L59 321L58 320M65.3333 320.667L65.6667 321.333L65.3333 320.667M124.333 320.667L124.667 321.333L124.333 320.667M143 320L144 321L143 320M161 320L162 321L161 320M226 320L227 321L226 320z"/>
<path style="fill:#f9b042; stroke:none;" d="M233 320L234 321L233 320M58 321L59 322L58 321z"/>
<path style="fill:#51b69a; stroke:none;" d="M117 321L118 322L117 321M144 321L145 322L144 321M174.333 321.667L174.667 322.333L174.333 321.667M191 321L192 322L191 321M199 321L200 322L199 321M89 322L90 323L89 322M96.3333 322.667L96.6667 323.333L96.3333 322.667z"/>
<path style="fill:#f9b042; stroke:none;" d="M124 322L125 323L124 322z"/>
<path style="fill:#51b69a; stroke:none;" d="M145 322L146 323L145 322M153 322L154 323L153 322z"/>
<path style="fill:#f9b042; stroke:none;" d="M160 322L161 323L160 322z"/>
<path style="fill:#51b69a; stroke:none;" d="M167 322L168 323L167 322z"/>
<path style="fill:#f9b042; stroke:none;" d="M227 322L228 323L227 322M64 323L65 324L64 323z"/>
<path style="fill:#51b69a; stroke:none;" d="M146 323L147 324L146 323M160 323L161 324L160 323z"/>
<path style="fill:#f9b042; stroke:none;" d="M167 323L168 324L167 323z"/>
<path style="fill:#51b69a; stroke:none;" d="M192 323L193 324L192 323M200 323L201 324L200 323M227 323L228 324L227 323M234.333 323.667L234.667 324.333L234.333 323.667M57 324L57 327L58 327L57 324M64 324L65 325L64 324M118.333 324.667L118.667 325.333L118.333 324.667M137 324L138 325L137 324M152 324L153 325L152 324M88 325L89 326L88 325z"/>
<path style="fill:#f9b042; stroke:none;" d="M95 325L96 326L95 325z"/>
<path style="fill:#51b69a; stroke:none;" d="M125 325L125 328L126 328L125 325M138 325L139 326L138 325M159 325L160 326L159 325M173.333 325.667L173.667 326.333L173.333 325.667z"/>
<path style="fill:#f9b042; stroke:none;" d="M193 325L194 326L193 325z"/>
<path style="fill:#51b69a; stroke:none;" d="M201 325L202 326L201 325z"/>
<path style="fill:#f9b042; stroke:none;" d="M234 325L235 326L234 325z"/>
<path style="fill:#51b69a; stroke:none;" d="M95 326L96 327L95 326M139 326L140 327L139 326z"/>
<path style="fill:#f9b042; stroke:none;" d="M228.333 326.667L228.667 327.333L228.333 326.667M57 327L57 334L58 334L57 327z"/>
<path style="fill:#51b69a; stroke:none;" d="M140 327L141 328L140 327M151 327L152 328L151 327M166.333 327.667L166.667 328.333L166.333 327.667M202 327L203 328L202 327z"/>
<path style="fill:#f9b042; stroke:none;" d="M63 328L63 333L64 333L63 328z"/>
<path style="fill:#51b69a; stroke:none;" d="M87 328L87 332L88 332L87 328z"/>
<path style="fill:#f9b042; stroke:none;" d="M94 328L95 329L94 328M125 328L125 334L126 334L125 328z"/>
<path style="fill:#51b69a; stroke:none;" d="M141 328L142 329L141 328M158 328L159 329L158 328M173 328L174 329L173 328M175 328L175 329L192 329L175 328M194 328L195 329L194 328M228 328L228 333L229 333L228 328M94 329L95 330L94 329z"/>
<path style="fill:#f9b042; stroke:none;" d="M119 329L119 332L120 332L119 329M142 329L143 330L142 329z"/>
<path style="fill:#51b69a; stroke:none;" d="M203.333 329.667L203.667 330.333L203.333 329.667M88 332L89 333L88 332z"/>
<path style="fill:#f9b042; stroke:none;" d="M92 332L93 333L92 332z"/>
<path style="fill:#51b69a; stroke:none;" d="M146 333L147 334L146 333M203 333L204 334L203 333z"/>
<path style="fill:#f9b042; stroke:none;" d="M228 333L229 334L228 333z"/>
<path style="fill:#51b69a; stroke:none;" d="M57.3333 334.667L57.6667 335.333L57.3333 334.667M125.333 334.667L125.667 335.333L125.333 334.667M148 334L149 335L148 334z"/>
<path style="fill:#f9b042; stroke:none;" d="M202 334L203 335L202 334z"/>
<path style="fill:#51b69a; stroke:none;" d="M150 335L151 336L150 335z"/>
<path style="fill:#f9b042; stroke:none;" d="M151 335L151 336L167 336L151 335M174 335L174 336L187 336L174 335z"/>
<path style="fill:#51b69a; stroke:none;" d="M187 335L187 336L199 336L187 335z"/>
<path style="fill:#f9b042; stroke:none;" d="M234 335L235 336L234 335z"/>
<path style="fill:#51b69a; stroke:none;" d="M64 336L65 337L64 336M118 336L119 337L118 336z"/>
<path style="fill:#f9b042; stroke:none;" d="M173 336L174 337L173 336z"/>
<path style="fill:#51b69a; stroke:none;" d="M234.333 336.667L234.667 337.333L234.333 336.667z"/>
<path style="fill:#f9b042; stroke:none;" d="M64 337L65 338L64 337M167 337L168 338L167 337z"/>
<path style="fill:#51b69a; stroke:none;" d="M227 337L228 338L227 337M167.333 338.667L167.667 339.333L167.333 338.667M174 338L175 339L174 338z"/>
<path style="fill:#f9b042; stroke:none;" d="M227 338L228 339L227 338z"/>
<path style="fill:#fcfcfc; stroke:none;" d="M566 338C564.687 368.115 533.677 398.576 504 401L504 402L567 402L567 358L566 338M0 339L0 402L63 402L63 401C39.6975 399.097 18.4769 380.977 7.88966 361C4.17577 353.992 3.35523 345.968 0 339z"/>
<path style="fill:#51b69a; stroke:none;" d="M58.3333 339.667L58.6667 340.333L58.3333 339.667M65 339L66 340L65 339M117 339L118 340L117 339M124.333 339.667L124.667 340.333L124.333 339.667z"/>
<path style="fill:#f9b042; stroke:none;" d="M174 339L175 340L174 339M65 340L66 341L65 340M117 340L118 341L117 340z"/>
<path style="fill:#51b69a; stroke:none;" d="M226 340L227 341L226 340M233.333 340.667L233.667 341.333L233.333 340.667z"/>
<path style="fill:#f9b042; stroke:none;" d="M168 341L169 342L168 341z"/>
<path style="fill:#51b69a; stroke:none;" d="M175 341L176 342L175 341z"/>
<path style="fill:#f9b042; stroke:none;" d="M59 342L60 343L59 342z"/>
<path style="fill:#51b69a; stroke:none;" d="M66 342L67 343L66 342M116 342L117 343L116 342M123 342L124 343L123 342M168 342L169 343L168 342M225 342L226 343L225 342M59 343L60 344L59 343M176 343L177 344L176 343z"/>
<path style="fill:#f9b042; stroke:none;" d="M225 343L226 344L225 343z"/>
<path style="fill:#51b69a; stroke:none;" d="M232 343L233 344L232 343M67 344L68 345L67 344z"/>
<path style="fill:#f9b042; stroke:none;" d="M115 344L116 345L115 344M122 344L123 345L122 344z"/>
<path style="fill:#51b69a; stroke:none;" d="M169 344L170 345L169 344M224 344L225 345L224 344M60 345L61 346L60 345M114 345L115 346L114 345M122 345L123 346L122 345z"/>
<path style="fill:#f9b042; stroke:none;" d="M177 345L178 346L177 345z"/>
<path style="fill:#51b69a; stroke:none;" d="M231 345L232 346L231 345M170 346L171 347L170 346M178 346L179 347L178 346z"/>
<path style="fill:#f9b042; stroke:none;" d="M223 346L224 347L223 346z"/>
<path style="fill:#51b69a; stroke:none;" d="M61 347L62 348L61 347z"/>
<path style="fill:#f9b042; stroke:none;" d="M69 347L70 348L69 347M113 347L114 348L113 347z"/>
<path style="fill:#51b69a; stroke:none;" d="M222 347L223 348L222 347M230 347L231 348L230 347z"/>
<path style="fill:#f9b042; stroke:none;" d="M62 348L63 349L62 348z"/>
<path style="fill:#51b69a; stroke:none;" d="M70 348L71 349L70 348M112 348L113 349L112 348z"/>
<path style="fill:#f9b042; stroke:none;" d="M120 348L121 349L120 348z"/>
<path style="fill:#51b69a; stroke:none;" d="M171 348L172 349L171 348M71 349L72 350L71 349M111 349L112 350L111 349z"/>
<path style="fill:#f9b042; stroke:none;" d="M172 349L173 350L172 349z"/>
<path style="fill:#51b69a; stroke:none;" d="M229 349L230 350L229 349M63 350L64 351L63 350M72 350L73 351L72 350M110 350L111 351L110 350M119 350L120 351L119 350z"/>
<path style="fill:#f9b042; stroke:none;" d="M228 350L229 351L228 350M64 351L65 352L64 351z"/>
<path style="fill:#51b69a; stroke:none;" d="M73 351L74 352L73 351M109 351L110 352L109 351M118 351L119 352L118 351M173 351L174 352L173 351M218 351L219 352L218 351z"/>
<path style="fill:#f9b042; stroke:none;" d="M74 352L75 353L74 352M108 352L109 353L108 352z"/>
<path style="fill:#51b69a; stroke:none;" d="M174 352L175 353L174 352M184 352L185 353L184 352M217 352L218 353L217 352M106 353L107 354L106 353M175 353L176 354L175 353M185 353L186 354L185 353z"/>
<path style="fill:#f9b042; stroke:none;" d="M216 353L217 354L216 353M77 354L78 355L77 354M105 354L106 355L105 354z"/>
<path style="fill:#51b69a; stroke:none;" d="M176 354L177 355L176 354M187 354L188 355L187 354M214 354L215 355L214 354M225 354L226 355L225 354M79 355L80 356L79 355M103 355L104 356L103 355M177 355L178 356L177 355M189 355L190 356L189 355M212 355L213 356L212 355M224 355L225 356L224 355z"/>
<path style="fill:#f9b042; stroke:none;" d="M81 356L82 357L81 356z"/>
<path style="fill:#51b69a; stroke:none;" d="M82 356L83 357L82 356M100 356L101 357L100 356z"/>
<path style="fill:#f9b042; stroke:none;" d="M101 356L102 357L101 356z"/>
<path style="fill:#51b69a; stroke:none;" d="M178 356L179 357L178 356M191 356L192 357L191 356M210 356L211 357L210 356z"/>
<path style="fill:#f9b042; stroke:none;" d="M70 357L71 358L70 357M84 357L85 358L84 357z"/>
<path style="fill:#51b69a; stroke:none;" d="M85 357L86 358L85 357M97 357L98 358L97 357z"/>
<path style="fill:#f9b042; stroke:none;" d="M98 357L99 358L98 357z"/>
<path style="fill:#51b69a; stroke:none;" d="M112 357L113 358L112 357M179 357L180 358L179 357M194.667 357.333L195.333 357.667L194.667 357.333M206 357L207 358L206 357z"/>
<path style="fill:#f9b042; stroke:none;" d="M207 357L208 358L207 357z"/>
<path style="fill:#51b69a; stroke:none;" d="M71 358L72 359L71 358z"/>
<path style="fill:#f9b042; stroke:none;" d="M90 358L90 359L93 359L90 358z"/>
<path style="fill:#51b69a; stroke:none;" d="M111 358L112 359L111 358z"/>
<path style="fill:#f9b042; stroke:none;" d="M199 358L199 359L202 359L199 358z"/>
<path style="fill:#51b69a; stroke:none;" d="M220 358L221 359L220 358z"/>
<path style="fill:#f9b042; stroke:none;" d="M73 359L74 360L73 359M109 359L110 360L109 359z"/>
<path style="fill:#51b69a; stroke:none;" d="M182 359L183 360L182 359M74 360L75 361L74 360z"/>
<path style="fill:#f9b042; stroke:none;" d="M184 360L185 361L184 360z"/>
<path style="fill:#51b69a; stroke:none;" d="M217 360L218 361L217 360M76 361L77 362L76 361M106 361L107 362L106 361z"/>
<path style="fill:#f9b042; stroke:none;" d="M186 361L187 362L186 361z"/>
<path style="fill:#51b69a; stroke:none;" d="M215 361L216 362L215 361M78.6667 362.333L79.3333 362.667L78.6667 362.333M103 362L104 363L103 362M188 362L189 363L188 362z"/>
<path style="fill:#f9b042; stroke:none;" d="M212 362L213 363L212 362z"/>
<path style="fill:#51b69a; stroke:none;" d="M213 362L214 363L213 362M81.6667 363.333L82.3333 363.667L81.6667 363.333M100.667 363.333L101.333 363.667L100.667 363.333M191 363L192 364L191 363z"/>
<path style="fill:#f9b042; stroke:none;" d="M192 363L193 364L192 363M209 363L210 364L209 363z"/>
<path style="fill:#51b69a; stroke:none;" d="M210 363L211 364L210 363M86.6667 364.333L87.3333 364.667L86.6667 364.333z"/>
<path style="fill:#f9b042; stroke:none;" d="M88 364L88 365L95 365L88 364z"/>
<path style="fill:#51b69a; stroke:none;" d="M95.6667 364.333L96.3333 364.667L95.6667 364.333M195.667 364.333L196.333 364.667L195.667 364.333z"/>
<path style="fill:#f9b042; stroke:none;" d="M197 364L197 365L204 365L197 364z"/>
<path style="fill:#51b69a; stroke:none;" d="M204.667 364.333L205.333 364.667L204.667 364.333z"/>
</svg>
