<?xml version="1.0" standalone="no"?>
<!DOCTYPE svg PUBLIC "-//W3C//DTD SVG 20010904//EN"
 "http://www.w3.org/TR/2001/REC-SVG-20010904/DTD/svg10.dtd">
<svg version="1.0" xmlns="http://www.w3.org/2000/svg"
 width="150.000000pt" height="150.000000pt" viewBox="0 0 150.000000 150.000000"
 preserveAspectRatio="xMidYMid meet">

<g transform="translate(0.000000,150.000000) scale(0.100000,-0.100000)"
fill="#000000" stroke="none">
<path d="M810 1430 c0 -14 7 -20 23 -20 13 0 26 3 30 6 12 12 -6 34 -29 34
-17 0 -24 -6 -24 -20z"/>
<path d="M1093 1440 c-22 -9 -23 -14 -23 -125 l0 -115 30 0 30 0 0 64 c0 49 4
65 16 70 31 12 34 5 34 -64 l0 -70 30 0 30 0 0 70 c0 86 -21 116 -76 107 -34
-6 -34 -6 -34 34 0 41 -2 43 -37 29z"/>
<path d="M100 1320 l0 -120 25 0 c23 0 24 3 27 73 l3 72 27 -57 c16 -33 34
-58 43 -58 8 0 28 26 44 58 l30 57 1 -72 c0 -71 1 -73 25 -73 l25 0 0 120 0
120 -30 0 c-27 0 -33 -6 -61 -67 l-31 -68 -34 68 c-31 60 -37 67 -64 67 l-30
0 0 -120z"/>
<path d="M400 1300 c0 -73 2 -81 25 -96 17 -11 33 -14 57 -8 18 4 43 6 56 5
21 -2 22 0 22 88 0 90 0 91 -25 91 -23 0 -24 -3 -27 -67 -3 -65 -4 -68 -28
-68 -24 0 -25 3 -28 68 -3 64 -4 67 -27 67 -24 0 -25 -2 -25 -80z"/>
<path d="M608 1374 c-2 -1 -2 -41 0 -88 3 -83 4 -86 28 -86 23 0 24 3 24 64 0
49 4 65 16 70 31 12 34 5 34 -64 l0 -70 30 0 30 0 0 68 c0 94 -11 107 -94 108
-36 0 -67 0 -68 -2z"/>
<path d="M810 1290 c0 -89 0 -90 25 -90 25 0 25 1 25 90 0 89 0 90 -25 90 -25
0 -25 -1 -25 -90z"/>
<path d="M920 1360 c-15 -15 -20 -33 -20 -73 0 -74 16 -92 79 -91 56 1 66 6
58 29 -4 10 -19 15 -42 15 l-36 0 3 48 c3 46 4 47 35 46 34 -2 54 23 31 38
-25 15 -87 9 -108 -12z"/>
<path d="M400 1057 c0 -5 10 -45 22 -88 l21 -79 37 0 36 0 14 63 13 62 14 -50
c8 -27 16 -56 18 -62 3 -7 20 -13 38 -13 34 0 34 1 55 74 27 93 27 103 1 101
-26 -2 -35 -17 -44 -72 -4 -24 -10 -43 -14 -43 -4 0 -13 25 -20 55 -12 53 -13
55 -46 55 -33 0 -34 -2 -46 -55 -7 -30 -16 -55 -20 -55 -4 0 -10 22 -14 48 -3
26 -9 52 -13 57 -9 13 -52 14 -52 2z"/>
<path d="M739 1064 c-11 -3 -15 -12 -12 -24 4 -15 13 -18 45 -17 25 1 43 -3
45 -10 3 -8 -5 -13 -22 -13 -50 0 -85 -28 -85 -67 0 -37 36 -53 103 -46 l57 6
0 71 c0 39 -4 77 -9 85 -9 14 -92 24 -122 15z m81 -118 c0 -18 -42 -29 -51
-14 -11 18 -1 28 27 28 14 0 24 -6 24 -14z"/>
<path d="M900 1056 c0 -21 53 -162 64 -169 13 -9 -19 -37 -42 -37 -8 0 -12 -9
-10 -22 2 -17 9 -22 23 -20 47 7 70 38 107 146 l37 106 -28 0 c-27 0 -30 -4
-41 -52 -19 -78 -23 -79 -40 -9 -14 59 -18 64 -43 65 -15 1 -27 -3 -27 -8z"/>
<path d="M1123 1055 c-42 -30 -25 -95 23 -95 39 0 56 -10 43 -26 -8 -10 -23
-12 -50 -8 -35 6 -39 4 -39 -14 0 -16 8 -23 37 -28 47 -9 84 5 102 37 13 24
13 29 -2 53 -13 20 -26 26 -52 26 -26 0 -35 4 -35 16 0 14 7 16 39 11 30 -4
41 -1 46 10 8 21 3 25 -47 30 -30 3 -50 -1 -65 -12z"/>
<path d="M640 754 c-28 -12 -40 -38 -40 -91 0 -72 24 -97 87 -90 51 5 58 10
49 32 -4 12 -13 15 -35 10 -33 -7 -49 11 -46 52 4 41 12 50 43 45 21 -3 31 1
36 14 3 9 4 19 2 21 -8 8 -80 13 -96 7z"/>
<path d="M800 748 c-22 -12 -25 -21 -28 -78 -3 -57 0 -67 19 -82 26 -22 87
-23 117 -2 18 13 22 25 22 73 0 31 -6 65 -13 75 -17 23 -85 31 -117 14z m75
-83 c0 -47 -2 -50 -25 -50 -22 0 -25 5 -28 39 -4 52 3 68 30 64 20 -3 23 -9
23 -53z"/>
<path d="M1013 753 l-43 -4 0 -90 c0 -88 0 -89 25 -89 23 0 24 3 27 68 3 65 4
67 31 70 l27 3 0 -70 c0 -69 1 -71 25 -71 24 0 25 2 25 70 0 56 3 70 15 70 8
0 18 0 23 0 4 0 9 -30 12 -67 5 -65 6 -68 30 -68 24 0 25 3 28 72 2 63 0 75
-19 94 -17 17 -28 20 -53 14 -37 -8 -42 -8 -81 -2 -16 2 -49 2 -72 0z"/>
<path d="M1150 466 c0 -9 12 -16 33 -18 25 -2 33 -8 35 -26 3 -23 3 -23 -104
-20 -110 3 -138 15 -87 35 25 10 23 11 -29 12 -33 1 -58 -3 -58 -9 0 -5 7 -10
15 -10 19 0 19 -33 0 -70 -13 -25 -22 -30 -54 -30 -53 0 -102 -35 -120 -86
-18 -52 -9 -88 34 -131 28 -28 40 -33 83 -33 55 0 92 22 117 71 12 23 22 29
49 29 29 0 41 10 101 80 38 44 72 80 77 80 17 0 7 -19 -27 -53 -31 -31 -35
-41 -35 -85 0 -63 33 -107 91 -122 103 -28 194 84 145 179 -20 38 -40 53 -93
66 -45 11 -46 13 -64 71 -10 32 -26 64 -36 71 -24 18 -73 17 -73 -1z m67 -106
c-18 -25 -139 -152 -142 -148 -4 7 -55 154 -55 161 0 4 48 7 106 7 103 0 105
0 91 -20z m-193 -84 c15 -38 25 -71 22 -73 -10 -10 -24 7 -29 36 -4 17 -16 40
-27 51 -15 15 -19 27 -14 46 8 33 15 24 48 -60z m-113 -13 c-10 -21 -22 -48
-25 -60 -7 -22 -5 -23 48 -23 31 0 56 -3 56 -6 0 -19 -26 -48 -53 -59 -43 -18
-82 -9 -112 27 -29 34 -32 66 -10 108 19 36 41 49 83 50 l32 0 -19 -37z m467
1 c61 -69 -11 -183 -100 -158 -67 20 -95 109 -49 158 13 14 27 23 31 21 4 -2
13 -25 20 -50 7 -25 16 -45 20 -45 16 0 18 15 4 58 -7 26 -14 49 -14 51 0 14
69 -14 88 -35z m-393 -14 c22 -43 19 -50 -25 -50 -46 0 -45 -1 -26 45 18 43
31 44 51 5z"/>
</g>
</svg>
